<svg xmlns="http://www.w3.org/2000/svg" width="400" height="570" viewBox="0 0 400 570"><rect width="100%" height="100%" fill="#DDDDDD"/><path fill="#999999" d="M88.73 254.34h13.2v-14.19q0-2.01.27-4.44l-13.47 18.63Zm19.65 0h5.46v4.29q0 .6-.39 1.03-.39.44-1.11.44h-3.96v10.59h-6.45V260.1h-18.3q-.75 0-1.32-.46-.57-.47-.72-1.16l-.78-3.75 20.55-27.45h7.02v27.06Zm40.29-5.34q0 5.67-1.22 9.86-1.21 4.18-3.36 6.91-2.14 2.73-5.07 4.07-2.92 1.33-6.31 1.33-3.39 0-6.29-1.33-2.89-1.34-5.02-4.07-2.13-2.73-3.33-6.91-1.2-4.19-1.2-9.86 0-5.7 1.2-9.87 1.2-4.17 3.33-6.9 2.13-2.73 5.02-4.06 2.9-1.34 6.29-1.34t6.31 1.34q2.93 1.33 5.07 4.06 2.15 2.73 3.36 6.9 1.22 4.17 1.22 9.87Zm-7.65 0q0-4.71-.69-7.8t-1.85-4.92q-1.15-1.83-2.65-2.57-1.5-.73-3.12-.73-1.59 0-3.08.73-1.48.74-2.62 2.57-1.14 1.83-1.82 4.92-.67 3.09-.67 7.8t.67 7.8q.68 3.09 1.82 4.92 1.14 1.83 2.62 2.57 1.49.73 3.08.73 1.62 0 3.12-.73 1.5-.74 2.65-2.57 1.16-1.83 1.85-4.92.69-3.09.69-7.8Zm42.45 0q0 5.67-1.22 9.86-1.21 4.18-3.36 6.91-2.14 2.73-5.07 4.07-2.92 1.33-6.31 1.33-3.39 0-6.29-1.33-2.89-1.34-5.02-4.07-2.13-2.73-3.33-6.91-1.2-4.19-1.2-9.86 0-5.7 1.2-9.87 1.2-4.17 3.33-6.9 2.13-2.73 5.02-4.06 2.9-1.34 6.29-1.34t6.31 1.34q2.93 1.33 5.07 4.06 2.15 2.73 3.36 6.9 1.22 4.17 1.22 9.87Zm-7.65 0q0-4.71-.69-7.8t-1.85-4.92q-1.15-1.83-2.65-2.57-1.5-.73-3.12-.73-1.59 0-3.08.73-1.48.74-2.62 2.57-1.14 1.83-1.82 4.92-.67 3.09-.67 7.8t.67 7.8q.68 3.09 1.82 4.92 1.14 1.83 2.62 2.57 1.49.73 3.08.73 1.62 0 3.12-.73 1.5-.74 2.65-2.57 1.16-1.83 1.85-4.92.69-3.09.69-7.8Zm29.76 5.49 10.53 16.2h-7.14q-.81 0-1.31-.42-.49-.42-.82-.96l-6.51-10.71q-.15.51-.35.96-.19.45-.43.84l-5.76 8.91q-.33.51-.81.95-.48.43-1.2.43h-6.63l10.56-15.87-10.14-14.91h7.14q.81 0 1.2.23.39.22.69.73l6.45 10.26q.33-1.02.93-2.01l5.19-8.1q.66-1.11 1.71-1.11h6.81l-10.11 14.58ZM230 234.03l-1.53 9.03q1.44-.3 2.76-.43 1.32-.14 2.55-.14 3.42 0 6.03 1.02 2.61 1.02 4.38 2.82 1.77 1.8 2.67 4.22.9 2.41.9 5.2 0 3.45-1.22 6.3-1.21 2.85-3.37 4.88-2.16 2.02-5.12 3.13-2.95 1.11-6.43 1.11-2.04 0-3.87-.42t-3.44-1.12q-1.6-.71-2.97-1.63-1.36-.91-2.44-1.93l2.28-3.15q.72-1.02 1.89-1.02.75 0 1.53.48t1.78 1.05q1.01.57 2.37 1.05 1.37.48 3.29.48 2.04 0 3.6-.66t2.59-1.84q1.04-1.19 1.56-2.82.53-1.64.53-3.56 0-3.54-2.06-5.53-2.05-2-6.07-2-3.09 0-6.33 1.14l-4.62-1.32 3.6-21.06h21.42v3.15q0 1.59-.99 2.58t-3.36.99H230Zm23.88-6.72h29.97v3.21q0 1.44-.3 2.33-.3.88-.6 1.48l-16.44 33.84q-.51 1.05-1.44 1.79-.93.73-2.49.73h-5.37l16.77-33.15q.57-1.02 1.12-1.87.56-.86 1.25-1.64h-20.76q-.69 0-1.2-.51t-.51-1.2v-5.01ZM319.19 249q0 5.67-1.22 9.86-1.21 4.18-3.36 6.91-2.14 2.73-5.07 4.07-2.92 1.33-6.31 1.33-3.39 0-6.29-1.33-2.89-1.34-5.02-4.07-2.13-2.73-3.33-6.91-1.2-4.19-1.2-9.86 0-5.7 1.2-9.87 1.2-4.17 3.33-6.9 2.13-2.73 5.02-4.06 2.9-1.34 6.29-1.34t6.31 1.34q2.93 1.33 5.07 4.06 2.15 2.73 3.36 6.9 1.22 4.17 1.22 9.87Zm-7.65 0q0-4.71-.69-7.8t-1.85-4.92q-1.15-1.83-2.65-2.57-1.5-.73-3.12-.73-1.59 0-3.08.73-1.48.74-2.62 2.57-1.14 1.83-1.82 4.92-.67 3.09-.67 7.8t.67 7.8q.68 3.09 1.82 4.92 1.14 1.83 2.62 2.57 1.49.73 3.08.73 1.62 0 3.12-.73 1.5-.74 2.65-2.57 1.16-1.83 1.85-4.92.69-3.09.69-7.8Zm-155.37 50.31h6.33l-13.47 43.38h-7.29l-9.48-29.64q-.39-1.08-.72-2.64-.18.75-.36 1.41-.18.66-.39 1.23l-9.57 29.64h-7.32l-13.44-43.38h6.75q1.05 0 1.75.5.71.49.95 1.33l7.38 25.95q.24.96.46 2.08.23 1.13.47 2.36.24-1.26.52-2.37.29-1.11.62-2.07l8.52-25.95q.24-.69.94-1.26.71-.57 1.73-.57h2.37q1.05 0 1.71.51.66.51.99 1.32l8.49 25.95q.63 1.86 1.14 4.29.39-2.37.87-4.29l7.38-25.95q.18-.75.91-1.29.74-.54 1.76-.54Zm24.12 12.12q3.42 0 6.22 1.11 2.81 1.11 4.8 3.15 2 2.04 3.08 4.98 1.08 2.94 1.08 6.57 0 3.66-1.08 6.6-1.08 2.94-3.08 5.01-1.99 2.07-4.8 3.18-2.8 1.11-6.22 1.11-3.45 0-6.27-1.11-2.82-1.11-4.82-3.18-1.99-2.07-3.09-5.01-1.09-2.94-1.09-6.6 0-3.63 1.09-6.57 1.1-2.94 3.09-4.98 2-2.04 4.82-3.15 2.82-1.11 6.27-1.11Zm0 26.01q3.84 0 5.68-2.58 1.85-2.58 1.85-7.56 0-4.98-1.85-7.59-1.84-2.61-5.68-2.61-3.9 0-5.78 2.62-1.87 2.63-1.87 7.58t1.87 7.55q1.88 2.59 5.78 2.59Zm27.39-23.67.45 3.48q1.44-2.76 3.42-4.33 1.98-1.58 4.68-1.58 2.13 0 3.42.93l-.48 5.55q-.15.54-.44.76-.28.23-.76.23-.45 0-1.34-.15-.88-.15-1.72-.15-1.23 0-2.19.36t-1.73 1.04q-.76.67-1.35 1.63-.58.96-1.09 2.19v18.96h-7.41v-30.78h4.35q1.14 0 1.59.41.45.4.6 1.45Zm15.84-15.66h7.41v25.53h1.38q.75 0 1.18-.2.44-.19.89-.79l7.65-9.45q.48-.63 1.06-.96.59-.33 1.52-.33h6.78l-9.57 11.43q-1.02 1.35-2.22 2.07.63.45 1.12 1.05.5.6.95 1.29l10.26 14.94h-6.69q-.87 0-1.5-.28-.63-.29-1.05-1.04l-7.86-11.67q-.42-.69-.87-.9-.45-.21-1.35-.21h-1.68v14.1h-7.41v-44.58Zm60.39 39.27q1.83 0 3.21-.52 1.38-.53 2.32-1.46.95-.93 1.43-2.22t.48-2.79q0-3.57-1.98-5.4-1.98-1.83-5.46-1.83t-5.46 1.83q-1.98 1.83-1.98 5.4 0 1.5.48 2.79t1.42 2.22q.95.93 2.33 1.46 1.38.52 3.21.52Zm0-32.97q-1.65 0-2.85.51-1.2.51-2 1.36-.79.86-1.17 1.97-.37 1.11-.37 2.34 0 1.29.31 2.51.32 1.21 1.07 2.15.75.95 1.98 1.52 1.23.57 3.03.57 1.8 0 3.03-.57 1.23-.57 1.98-1.52.75-.94 1.06-2.15.32-1.22.32-2.51 0-1.23-.39-2.34-.39-1.11-1.17-1.97-.78-.85-1.98-1.36-1.2-.51-2.85-.51Zm7.32 15.66q3.96 1.29 5.85 3.95 1.89 2.65 1.89 6.49 0 2.88-1.1 5.22-1.09 2.34-3.07 3.99-1.98 1.65-4.76 2.55-2.77.9-6.13.9t-6.14-.9q-2.77-.9-4.75-2.55t-3.08-3.99q-1.09-2.34-1.09-5.22 0-3.84 1.89-6.49 1.89-2.66 5.85-3.95-3.15-1.32-4.73-3.75-1.57-2.43-1.57-5.85 0-2.46 1-4.59 1.01-2.13 2.81-3.71 1.8-1.57 4.3-2.46 2.51-.88 5.51-.88t5.5.88q2.51.89 4.31 2.46 1.8 1.58 2.8 3.71 1.01 2.13 1.01 4.59 0 3.42-1.58 5.85-1.57 2.43-4.72 3.75Z"/></svg>