<svg xmlns="http://www.w3.org/2000/svg" width="494" height="379" viewBox="0 0 494 379"><rect width="100%" height="100%" fill="#DDDDDD"/><path fill="#999999" d="M107.525 195.38h14.52v-15.61q0-2.21.29-4.89l-14.81 20.5Zm21.61 0h6.01v4.71q0 .66-.43 1.14-.43.48-1.22.48h-4.36v11.65h-7.09v-11.65h-20.13q-.83 0-1.45-.51-.63-.51-.8-1.27l-.85-4.13 22.6-30.19h7.72v29.77Zm18.58-15.42q0 4 2.06 6.09 2.07 2.1 5.86 2.1 1.98 0 3.53-.63 1.55-.63 2.61-1.71 1.06-1.09 1.6-2.58.54-1.48.54-3.2 0-1.95-.59-3.48-.59-1.54-1.68-2.59-1.09-1.06-2.59-1.62-1.5-.56-3.29-.56-1.84 0-3.33.61-1.48.61-2.54 1.7-1.06 1.09-1.62 2.59-.56 1.5-.56 3.28Zm-3.99 33.4 14.82-18.51q.56-.7 1.05-1.36.5-.66.96-1.32-1.65 1.06-3.63 1.6-1.98.55-4.16.55-2.47 0-4.85-.86-2.38-.86-4.22-2.59-1.85-1.73-2.99-4.29-1.14-2.56-1.14-5.99 0-3.2 1.19-6 1.19-2.81 3.33-4.92 2.15-2.11 5.15-3.34 3-1.22 6.63-1.22 3.67 0 6.59 1.16 2.92 1.15 4.98 3.23 2.06 2.08 3.17 4.99 1.1 2.9 1.1 6.36 0 2.22-.38 4.2t-1.07 3.81q-.69 1.83-1.68 3.58t-2.21 3.46l-10.93 15.58q-.56.79-1.68 1.34-1.12.54-2.54.54h-7.49Zm40.36-17.98h14.52v-15.61q0-2.21.29-4.89l-14.81 20.5Zm21.61 0h6.01v4.71q0 .66-.43 1.14-.43.48-1.22.48h-4.36v11.65h-7.09v-11.65h-20.13q-.83 0-1.45-.51-.63-.51-.8-1.27l-.85-4.13 22.6-30.19h7.72v29.77Zm58.45 7.06-4.33 4.25-11.18-11.18-11.29 11.25-4.32-4.26 11.28-11.32-10.76-10.75 4.29-4.29 10.76 10.75 10.69-10.69 4.36 4.29-10.72 10.73 11.22 11.22Zm27.45-22.74-4.29-.76q.5-3.43 1.92-6.02 1.41-2.59 3.54-4.32 2.13-1.74 4.89-2.61 2.75-.88 5.92-.88 3.3 0 5.96.94 2.65.94 4.53 2.61 1.89 1.67 2.89 3.91 1.01 2.25 1.01 4.85 0 2.28-.51 4.01t-1.47 3.02q-.96 1.29-2.38 2.18-1.42.89-3.2 1.48 4.29 1.36 6.4 4.13 2.12 2.77 2.12 6.96 0 3.57-1.32 6.31-1.32 2.73-3.57 4.6-2.24 1.86-5.2 2.82-2.95.96-6.25.96-3.6 0-6.27-.83-2.67-.82-4.65-2.44-1.98-1.62-3.37-3.96-1.38-2.34-2.37-5.41l3.59-1.49q1.42-.59 2.66-.31 1.24.28 1.8 1.34.59 1.15 1.3 2.27.71 1.13 1.7 2 .99.87 2.33 1.42 1.33.54 3.18.54 2.08 0 3.63-.67 1.55-.68 2.59-1.77 1.04-1.09 1.55-2.42.51-1.34.51-2.69 0-1.72-.36-3.12-.36-1.4-1.52-2.39-1.15-.99-3.31-1.56-2.16-.56-5.79-.56v-5.8q3-.04 4.98-.57 1.98-.52 3.15-1.46t1.63-2.26q.47-1.32.47-2.91 0-3.36-1.89-5.11-1.88-1.75-5.01-1.75-1.45 0-2.67.41-1.23.41-2.2 1.16-.97.74-1.63 1.73-.66.99-.99 2.18-.56 1.51-1.47 2.01-.91.49-2.56.23Zm33.5-14.06h32.96v3.53q0 1.59-.33 2.56t-.66 1.63l-18.08 37.23q-.56 1.15-1.58 1.96-1.03.81-2.74.81h-5.91l18.45-36.47q.62-1.12 1.23-2.06t1.37-1.8h-22.83q-.76 0-1.32-.56t-.56-1.32v-5.51Zm46.1 14.32q0 4 2.06 6.09 2.06 2.1 5.86 2.1 1.98 0 3.53-.63 1.55-.63 2.61-1.71 1.05-1.09 1.6-2.58.54-1.48.54-3.2 0-1.95-.59-3.48-.6-1.54-1.69-2.59-1.09-1.06-2.59-1.62-1.5-.56-3.28-.56-1.85 0-3.33.61-1.49.61-2.54 1.7-1.06 1.09-1.62 2.59-.56 1.5-.56 3.28Zm-4 33.4 14.82-18.51q.56-.7 1.06-1.36.49-.66.95-1.32-1.65 1.06-3.63 1.6-1.98.55-4.15.55-2.48 0-4.85-.86-2.38-.86-4.23-2.59-1.85-1.73-2.98-4.29-1.14-2.56-1.14-5.99 0-3.2 1.18-6 1.19-2.81 3.34-4.92 2.14-2.11 5.15-3.34 3-1.22 6.63-1.22 3.66 0 6.58 1.16 2.92 1.15 4.99 3.23 2.06 2.08 3.16 4.99 1.11 2.9 1.11 6.36 0 2.22-.38 4.2t-1.07 3.81q-.7 1.83-1.69 3.58t-2.21 3.46l-10.92 15.58q-.56.79-1.68 1.34-1.13.54-2.54.54h-7.5Z"/></svg>