<svg xmlns="http://www.w3.org/2000/svg" width="672" height="390" viewBox="0 0 672 390"><rect width="100%" height="100%" fill="#DDDDDD"/><path fill="#999999" d="m175.265 162.825-19.09 23.37-2.22 2.75q1.87-.93 4.02-1.44 2.16-.51 4.65-.51 3.65 0 7.1 1.2 3.45 1.2 6.08 3.62 2.62 2.43 4.22 6.03 1.61 3.61 1.61 8.42 0 4.49-1.65 8.43-1.65 3.94-4.63 6.87-2.98 2.94-7.19 4.63-4.2 1.69-9.27 1.69-5.17 0-9.26-1.64-4.09-1.65-6.99-4.61-2.89-2.96-4.42-7.12-1.54-4.16-1.54-9.23 0-4.54 1.85-9.33 1.84-4.78 5.72-9.94l15.35-20.61q.8-1.06 2.33-1.82 1.54-.76 3.54-.76h9.79Zm-16.6 56.07q2.63 0 4.83-.89t3.78-2.49q1.58-1.6 2.47-3.76.89-2.16.89-4.69 0-2.76-.84-4.97-.85-2.2-2.4-3.73-1.56-1.54-3.74-2.34-2.18-.8-4.81-.8-2.62 0-4.76.89-2.14.89-3.65 2.47-1.51 1.58-2.36 3.74-.84 2.15-.84 4.65 0 2.67.73 4.87.74 2.2 2.18 3.76 1.45 1.56 3.58 2.43 2.14.86 4.94.86Zm30.04-56.07h44.46v4.76q0 2.14-.45 3.45-.44 1.32-.89 2.21l-24.38 50.19q-.76 1.56-2.14 2.65-1.38 1.09-3.69 1.09h-7.97l24.88-49.17q.84-1.52 1.67-2.78.82-1.27 1.84-2.43h-30.79q-1.03 0-1.78-.76-.76-.75-.76-1.78v-7.43Zm74.63 54.12h16.51q1.78 0 2.82 1 1.05 1 1.05 2.64v6.59h-44.14v-3.65q0-1.11.46-2.34.47-1.22 1.49-2.2l19.54-19.58q2.45-2.49 4.38-4.76 1.94-2.27 3.23-4.49 1.29-2.23 1.98-4.52.69-2.29.69-4.83 0-2.31-.67-4.07-.67-1.76-1.89-2.96-1.22-1.2-2.94-1.8-1.71-.6-3.85-.6-1.95 0-3.62.55-1.67.56-2.96 1.56t-2.18 2.34q-.89 1.33-1.34 2.93-.75 2.05-1.96 2.72-1.2.67-3.47.31l-5.78-1.02q.67-4.63 2.58-8.12 1.91-3.5 4.78-5.83 2.87-2.34 6.59-3.52 3.71-1.18 7.99-1.18 4.45 0 8.14 1.31 3.69 1.32 6.32 3.72 2.62 2.4 4.09 5.78 1.47 3.39 1.47 7.53 0 3.56-1.04 6.58-1.05 3.03-2.81 5.79-1.76 2.76-4.11 5.34-2.36 2.58-4.94 5.25l-14.51 14.82q2.09-.63 4.16-.96 2.07-.33 3.94-.33Zm92.91-4.5-5.83 5.74-15.08-15.08-15.22 15.17-5.83-5.74 15.22-15.26-14.51-14.51 5.79-5.79 14.5 14.51 14.42-14.42 5.88 5.79-14.47 14.46 15.13 15.13Zm37.03-30.66-5.79-1.02q.67-4.63 2.58-8.12 1.92-3.5 4.79-5.83 2.87-2.34 6.58-3.52 3.72-1.18 7.99-1.18 4.45 0 8.03 1.27 3.59 1.27 6.12 3.51 2.54 2.25 3.9 5.28 1.35 3.02 1.35 6.54 0 3.07-.69 5.41-.69 2.33-1.98 4.07-1.29 1.73-3.2 2.93-1.91 1.21-4.32 2.01 5.79 1.82 8.64 5.56 2.84 3.74 2.84 9.39 0 4.81-1.78 8.5-1.78 3.69-4.8 6.21-3.03 2.51-7.01 3.8t-8.43 1.29q-4.85 0-8.46-1.11-3.6-1.11-6.27-3.29-2.67-2.18-4.54-5.34-1.87-3.16-3.21-7.3l4.85-2q1.92-.8 3.59-.43 1.67.38 2.42 1.81.8 1.55 1.76 3.07.96 1.51 2.29 2.69 1.34 1.18 3.14 1.91 1.8.74 4.29.74 2.81 0 4.9-.92 2.09-.91 3.49-2.38 1.4-1.47 2.09-3.27t.69-3.62q0-2.32-.49-4.21-.49-1.89-2.04-3.23-1.56-1.33-4.48-2.09-2.91-.75-7.81-.75v-7.84q4.05-.04 6.72-.75t4.25-1.98q1.58-1.27 2.21-3.05.62-1.78.62-3.92 0-4.54-2.54-6.89-2.53-2.36-6.76-2.36-1.96 0-3.61.55-1.64.56-2.96 1.56-1.31 1-2.2 2.34-.89 1.33-1.33 2.93-.76 2.05-1.98 2.72-1.23.67-3.45.31Zm55.71.36q0 5.38 2.78 8.21 2.78 2.82 7.9 2.82 2.67 0 4.76-.84 2.1-.85 3.52-2.32 1.42-1.47 2.16-3.47.73-2 .73-4.32 0-2.62-.8-4.69-.8-2.07-2.27-3.49-1.47-1.43-3.49-2.18-2.03-.76-4.43-.76-2.49 0-4.49.82-2.01.83-3.43 2.3-1.43 1.46-2.18 3.49-.76 2.02-.76 4.43Zm-5.38 45.03 19.98-24.96q.75-.94 1.42-1.83.67-.89 1.29-1.78-2.22 1.43-4.89 2.16-2.67.73-5.61.73-3.34 0-6.54-1.15-3.2-1.16-5.7-3.5-2.49-2.33-4.02-5.78-1.54-3.45-1.54-8.08 0-4.31 1.6-8.1 1.6-3.78 4.5-6.63 2.89-2.85 6.94-4.49 4.05-1.65 8.94-1.65 4.94 0 8.88 1.56 3.94 1.56 6.72 4.36 2.78 2.8 4.27 6.72 1.49 3.92 1.49 8.59 0 2.98-.51 5.65-.51 2.67-1.44 5.14-.94 2.47-2.27 4.83-1.34 2.36-2.99 4.67l-14.72 21q-.76 1.07-2.27 1.81-1.52.73-3.43.73h-10.1Zm91.71-32.17q0 8.41-1.8 14.61-1.8 6.21-4.98 10.26-3.19 4.05-7.52 6.03-4.34 1.98-9.37 1.98-5.03 0-9.32-1.98-4.3-1.98-7.46-6.03-3.16-4.05-4.94-10.26-1.78-6.2-1.78-14.61 0-8.46 1.78-14.64 1.78-6.19 4.94-10.24t7.46-6.03q4.29-1.98 9.32-1.98t9.37 1.98q4.33 1.98 7.52 6.03 3.18 4.05 4.98 10.24 1.8 6.18 1.8 14.64Zm-11.35 0q0-6.99-1.02-11.57-1.02-4.59-2.74-7.3-1.71-2.72-3.93-3.81-2.23-1.09-4.63-1.09-2.36 0-4.56 1.09-2.21 1.09-3.9 3.81-1.69 2.71-2.69 7.3-1 4.58-1 11.57 0 6.98 1 11.57 1 4.58 2.69 7.29 1.69 2.72 3.9 3.81 2.2 1.09 4.56 1.09 2.4 0 4.63-1.09 2.22-1.09 3.93-3.81 1.72-2.71 2.74-7.29 1.02-4.59 1.02-11.57Z"/></svg>