<svg xmlns="http://www.w3.org/2000/svg" width="400" height="275" viewBox="0 0 400 275"><rect width="100%" height="100%" fill="#DDDDDD"/><path fill="#999999" d="M88.105 142.22h11.66v-12.54q0-1.77.24-3.92l-11.9 16.46Zm17.36 0h4.82v3.79q0 .53-.35.91-.34.39-.98.39h-3.49v9.35h-5.7v-9.35h-16.17q-.66 0-1.16-.42-.51-.41-.64-1.02l-.69-3.31 18.16-24.25h6.2v23.91Zm35.59-4.72q0 5.01-1.08 8.71-1.07 3.69-2.97 6.1-1.89 2.42-4.47 3.59-2.59 1.18-5.58 1.18-3 0-5.55-1.18-2.56-1.17-4.44-3.59-1.88-2.41-2.94-6.1-1.06-3.7-1.06-8.71 0-5.03 1.06-8.72 1.06-3.68 2.94-6.09 1.88-2.41 4.44-3.59 2.55-1.18 5.55-1.18 2.99 0 5.58 1.18 2.58 1.18 4.47 3.59 1.9 2.41 2.97 6.09 1.08 3.69 1.08 8.72Zm-6.76 0q0-4.16-.61-6.89-.61-2.73-1.63-4.35-1.02-1.61-2.35-2.26-1.32-.65-2.75-.65-1.41 0-2.72.65-1.31.65-2.32 2.26-1 1.62-1.6 4.35-.6 2.73-.6 6.89t.6 6.89q.6 2.73 1.6 4.35 1.01 1.61 2.32 2.26 1.31.65 2.72.65 1.43 0 2.75-.65 1.33-.65 2.35-2.26 1.02-1.62 1.63-4.35.61-2.73.61-6.89Zm37.5 0q0 5.01-1.08 8.71-1.07 3.69-2.97 6.1-1.89 2.42-4.47 3.59-2.59 1.18-5.58 1.18-3 0-5.55-1.18-2.56-1.17-4.44-3.59-1.88-2.41-2.94-6.1-1.06-3.7-1.06-8.71 0-5.03 1.06-8.72 1.06-3.68 2.94-6.09 1.88-2.41 4.44-3.59 2.55-1.18 5.55-1.18 2.99 0 5.58 1.18 2.58 1.18 4.47 3.59 1.9 2.41 2.97 6.09 1.08 3.69 1.08 8.72Zm-6.76 0q0-4.16-.61-6.89-.61-2.73-1.63-4.35-1.02-1.61-2.35-2.26-1.32-.65-2.75-.65-1.41 0-2.72.65-1.31.65-2.32 2.26-1 1.62-1.6 4.35-.6 2.73-.6 6.89t.6 6.89q.6 2.73 1.6 4.35 1.01 1.61 2.32 2.26 1.31.65 2.72.65 1.43 0 2.75-.65 1.33-.65 2.35-2.26 1.02-1.62 1.63-4.35.61-2.73.61-6.89Zm48.84 10.39-3.47 3.42-8.99-8.99-9.06 9.04-3.47-3.42 9.06-9.09-8.64-8.64 3.45-3.44 8.64 8.64 8.58-8.59 3.5 3.45-8.61 8.61 9.01 9.01Zm31.9 2.68h9.84q1.06 0 1.68.59.62.6.62 1.58v3.92h-26.29v-2.17q0-.67.28-1.39.28-.73.89-1.32l11.63-11.66q1.46-1.48 2.61-2.83 1.16-1.35 1.92-2.68.77-1.32 1.18-2.69.41-1.36.41-2.87 0-1.38-.39-2.43-.4-1.04-1.13-1.76-.73-.72-1.75-1.07-1.02-.36-2.29-.36-1.17 0-2.16.33-.99.33-1.76.93-.77.59-1.3 1.39-.53.79-.8 1.75-.45 1.22-1.16 1.61-.72.4-2.07.19l-3.44-.61q.39-2.76 1.53-4.84 1.14-2.08 2.85-3.47 1.71-1.39 3.92-2.09 2.22-.7 4.76-.7 2.65 0 4.85.78 2.2.78 3.76 2.21 1.57 1.43 2.44 3.45.87 2.01.87 4.48 0 2.12-.62 3.92-.62 1.8-1.67 3.44-1.04 1.65-2.45 3.18-1.4 1.54-2.94 3.13l-8.64 8.82q1.25-.37 2.48-.57 1.23-.19 2.34-.19Zm17.04-32.23h26.48v2.84q0 1.27-.27 2.05-.26.78-.53 1.31l-14.52 29.89q-.45.93-1.27 1.58-.82.65-2.2.65h-4.75l14.82-29.28q.5-.9.99-1.66.49-.75 1.1-1.44h-18.34q-.61 0-1.06-.45-.45-.45-.45-1.06v-4.43Zm40.39 5.94-1.35 7.97q1.27-.26 2.44-.38 1.16-.12 2.25-.12 3.02 0 5.32.9 2.31.9 3.87 2.49 1.57 1.59 2.36 3.73.8 2.13.8 4.59 0 3.05-1.08 5.57-1.07 2.52-2.98 4.3-1.91 1.79-4.52 2.77-2.61.98-5.68.98-1.8 0-3.42-.37-1.61-.37-3.03-.99-1.42-.62-2.63-1.43-1.2-.81-2.16-1.71l2.02-2.78q.63-.9 1.67-.9.66 0 1.35.42.69.42 1.58.93.88.5 2.09.92 1.21.43 2.9.43 1.8 0 3.18-.58 1.38-.59 2.29-1.63.92-1.05 1.38-2.5.47-1.44.47-3.14 0-3.12-1.82-4.88-1.82-1.77-5.37-1.77-2.73 0-5.59 1.01l-4.08-1.17 3.18-18.6h18.92v2.78q0 1.41-.87 2.28-.88.88-2.97.88h-10.52Z"/></svg>