<?xml version="1.0" standalone="no"?>
<!DOCTYPE svg PUBLIC "-//W3C//DTD SVG 20010904//EN"
 "http://www.w3.org/TR/2001/REC-SVG-20010904/DTD/svg10.dtd">
<svg version="1.0" xmlns="http://www.w3.org/2000/svg"
 width="70.000000pt" height="70.000000pt" viewBox="0 0 70.000000 70.000000"
 preserveAspectRatio="xMidYMid meet">
<metadata>
Created by potrace 1.14, written by Peter Selinger 2001-2017
</metadata>
<g transform="translate(0.000000,70.000000) scale(0.100000,-0.100000)"
fill="#000000" stroke="none">
<path d="M85 510 c-3 -6 35 -10 100 -12 l106 -3 -62 -63 c-34 -34 -59 -66 -55
-70 4 -4 13 0 19 8 27 34 45 42 67 30 20 -10 60 -66 60 -82 0 -4 -55 -9 -122
-10 l-123 -3 3 -29 c7 -62 60 -106 128 -106 61 0 107 37 128 102 9 28 22 21
41 -22 35 -77 127 -104 196 -57 19 12 36 31 38 42 3 15 -4 13 -33 -13 -20 -18
-44 -32 -54 -33 -32 -2 -67 3 -85 13 -17 9 -57 65 -57 81 0 4 54 7 120 7 135
0 140 3 116 62 -43 102 -190 103 -239 1 -11 -23 -24 -43 -28 -43 -4 0 -17 20
-28 43 -12 24 -33 50 -46 57 l-26 14 41 41 c22 23 37 44 34 48 -11 11 -232 8
-239 -3z m484 -127 c16 -16 32 -38 36 -50 6 -23 6 -23 -109 -23 -64 0 -116 2
-116 5 0 16 33 66 52 79 37 26 103 21 137 -11z m-249 -100 c0 -18 -41 -73 -62
-84 -51 -27 -128 -4 -152 46 -9 18 -16 36 -16 39 0 3 52 6 115 6 63 0 115 -3
115 -7z"/>
</g>
</svg>
